<svg xmlns="http://www.w3.org/2000/svg" width="792" height="800" viewBox="0 0 792 800" role="img" aria-label="How a job moves from spec to done" font-family="-apple-system, BlinkMacSystemFont, 'Segoe UI', 'Noto Sans', Helvetica, Arial, sans-serif">
<title>How a job moves from spec to done</title>
<path d="M600 664H758Q768 664 768 654V166Q768 156 758 156H601M600 564H768" fill="none" stroke="#f85149" stroke-width="1.5" stroke-dasharray="5 4"/>
<path d="M607 151L600 156L607 161Z" fill="#f85149"/>
<text x="756" y="612" font-size="12" font-weight="500" fill="#f85149" text-anchor="end">Failed test or review:</text>
<text x="756" y="629" font-size="12" font-weight="400" fill="#f85149" text-anchor="end">back to the board</text>
<path d="M380 88V123" fill="none" stroke="#656c76" stroke-width="1.5"/>
<path d="M380 188V201.5Q380 211.5 370 211.5H208Q198 211.5 198 221.5V235" fill="none" stroke="#656c76" stroke-width="1.5"/>
<path d="M380 188V201.5Q380 211.5 390 211.5H552Q562 211.5 562 221.5V235" fill="none" stroke="#656c76" stroke-width="1.5"/>
<path d="M198 484V497.5Q198 507.5 208 507.5H370Q380 507.5 380 517.5V531" fill="none" stroke="#656c76" stroke-width="1.5"/>
<path d="M562 484V497.5Q562 507.5 552 507.5H390Q380 507.5 380 517.5V531" fill="none" stroke="#656c76" stroke-width="1.5"/>
<path d="M380 596V631" fill="none" stroke="#656c76" stroke-width="1.5"/>
<path d="M380 696V731" fill="none" stroke="#656c76" stroke-width="1.5"/>
<path d="M375 117L380 124L385 117Z" fill="#656c76"/>
<path d="M375 525L380 532L385 525Z" fill="#656c76"/>
<path d="M375 625L380 632L385 625Z" fill="#656c76"/>
<path d="M375 725L380 732L385 725Z" fill="#656c76"/>
<path d="M193 229L198 236L203 229Z" fill="#656c76"/>
<path d="M557 229L562 236L567 229Z" fill="#656c76"/>
<rect x="160" y="24" width="440" height="64" rx="18" fill="#151b23" stroke="#3d444d"/>
<rect x="172" y="36" width="40" height="40" rx="6" fill="#f0f6fc" fill-opacity="0.12"/>
<g transform="translate(182 46) scale(0.8333)" fill="none" stroke="#f0f6fc" stroke-width="2.1" stroke-linecap="round" stroke-linejoin="round"><path d="M19 21v-2a4 4 0 0 0-4-4H9a4 4 0 0 0-4 4v2"/><circle cx="12" cy="7" r="4"/></g>
<text x="224" y="54" font-size="15" font-weight="600" fill="#f0f6fc">Me</text>
<text x="224" y="73" font-size="13" font-weight="400" fill="#9198a1">Specs, decisions, approvals</text>
<rect x="160" y="124" width="440" height="64" rx="18" fill="#151b23" stroke="#3d444d"/>
<rect x="172" y="136" width="40" height="40" rx="6" fill="#f0f6fc" fill-opacity="0.12"/>
<g transform="translate(182 146) scale(0.8333)" fill="none" stroke="#f0f6fc" stroke-width="2.1" stroke-linecap="round" stroke-linejoin="round"><rect width="18" height="18" x="3" y="3" rx="2"/><path d="M8 7v7"/><path d="M12 7v4"/><path d="M16 7v9"/></g>
<text x="224" y="154" font-size="15" font-weight="600" fill="#f0f6fc">Shared task board</text>
<text x="224" y="173" font-size="13" font-weight="400" fill="#9198a1">Every job is a card</text>
<rect x="24" y="236" width="348" height="248" rx="18" fill="#151b23" stroke="#3d444d"/>
<rect x="24" y="236" width="348" height="248" rx="18" fill="#4493f8" stroke="#4493f8" fill-opacity="0.05" stroke-opacity="0.45"/>
<rect x="36" y="248" width="40" height="40" rx="6" fill="#4493f8" fill-opacity="0.12"/>
<g transform="translate(46 258) scale(0.8333)" fill="none" stroke="#4493f8" stroke-width="2.1" stroke-linecap="round" stroke-linejoin="round"><path d="M12 8V4H8"/><rect width="16" height="12" x="4" y="8" rx="2"/><path d="M2 14h2"/><path d="M20 14h2"/><path d="M15 13v2"/><path d="M9 13v2"/></g>
<text x="88" y="266" font-size="15" font-weight="600" fill="#f0f6fc">Hermes agents</text>
<text x="88" y="285" font-size="13" font-weight="400" fill="#9198a1">Always on, reachable from</text>
<text x="88" y="302" font-size="13" font-weight="400" fill="#9198a1">Discord and Telegram</text>
<rect x="36" y="318" width="324" height="34" rx="6" fill="#0d1117" stroke="#3d444d"/>
<circle cx="50" cy="335" r="3" fill="#4493f8"/>
<text x="62" y="340" font-size="13" font-weight="600" fill="#f0f6fc">Harry</text>
<text x="148" y="340" font-size="13" font-weight="400" fill="#9198a1">planning and triage</text>
<rect x="36" y="358" width="324" height="34" rx="6" fill="#0d1117" stroke="#3d444d"/>
<circle cx="50" cy="375" r="3" fill="#4493f8"/>
<text x="62" y="380" font-size="13" font-weight="600" fill="#f0f6fc">Dobby</text>
<text x="148" y="380" font-size="13" font-weight="400" fill="#9198a1">runs the system</text>
<rect x="36" y="398" width="324" height="34" rx="6" fill="#0d1117" stroke="#3d444d"/>
<circle cx="50" cy="415" r="3" fill="#4493f8"/>
<text x="62" y="420" font-size="13" font-weight="600" fill="#f0f6fc">Researcher</text>
<text x="148" y="420" font-size="13" font-weight="400" fill="#9198a1">sourced research</text>
<rect x="36" y="438" width="324" height="34" rx="6" fill="#0d1117" stroke="#3d444d"/>
<circle cx="50" cy="455" r="3" fill="#4493f8"/>
<text x="62" y="460" font-size="13" font-weight="600" fill="#f0f6fc">Content</text>
<text x="148" y="460" font-size="13" font-weight="400" fill="#9198a1">drafts posts</text>
<rect x="388" y="236" width="348" height="248" rx="18" fill="#151b23" stroke="#3d444d"/>
<rect x="388" y="236" width="348" height="248" rx="18" fill="#f0883e" stroke="#f0883e" fill-opacity="0.05" stroke-opacity="0.45"/>
<rect x="400" y="248" width="40" height="40" rx="6" fill="#f0883e" fill-opacity="0.12"/>
<g transform="translate(410 258) scale(0.8333)" fill="none" stroke="#f0883e" stroke-width="2.1" stroke-linecap="round" stroke-linejoin="round"><path d="m18 16 4-4-4-4"/><path d="m6 8-4 4 4 4"/><path d="m14.5 4-5 16"/></g>
<text x="452" y="266" font-size="15" font-weight="600" fill="#f0f6fc">Builders</text>
<text x="452" y="285" font-size="13" font-weight="400" fill="#9198a1">Claude Code workers in Ghostex</text>
<text x="452" y="302" font-size="13" font-weight="400" fill="#9198a1">build and document</text>
<rect x="400" y="318" width="324" height="154" rx="6" fill="#0d1117" stroke="#3d444d"/>
<path d="M400 342H724" stroke="#3d444d"/>
<circle cx="412" cy="330" r="3" fill="#3d444d"/>
<circle cx="422" cy="330" r="3" fill="#3d444d"/>
<circle cx="432" cy="330" r="3" fill="#3d444d"/>
<path d="M412 354l4 4-4 4" fill="none" stroke="#f0883e" stroke-width="1.6" stroke-linecap="round" stroke-linejoin="round"/>
<rect x="422" y="355" width="44.4" height="6" rx="3" fill="#f0883e" fill-opacity="0.55"/>
<path d="M508 342V472" stroke="#3d444d"/>
<path d="M520 354l4 4-4 4" fill="none" stroke="#f0883e" stroke-width="1.6" stroke-linecap="round" stroke-linejoin="round"/>
<rect x="530" y="355" width="44.4" height="6" rx="3" fill="#f0883e" fill-opacity="0.55"/>
<path d="M616 342V472" stroke="#3d444d"/>
<path d="M628 354l4 4-4 4" fill="none" stroke="#f0883e" stroke-width="1.6" stroke-linecap="round" stroke-linejoin="round"/>
<rect x="638" y="355" width="44.4" height="6" rx="3" fill="#f0883e" fill-opacity="0.55"/>
<g fill="#9198a1" fill-opacity="0.28"><rect x="412" y="375" width="68.88" height="6" rx="3"/><rect x="412" y="391" width="33.6" height="6" rx="3"/><rect x="412" y="407" width="37.8" height="6" rx="3"/><rect x="412" y="423" width="46.2" height="6" rx="3"/><rect x="412" y="439" width="75.6" height="6" rx="3"/><rect x="412" y="455" width="63" height="6" rx="3"/><rect x="520" y="375" width="58.8" height="6" rx="3"/><rect x="520" y="391" width="50.4" height="6" rx="3"/><rect x="520" y="407" width="68.88" height="6" rx="3"/><rect x="520" y="423" width="33.6" height="6" rx="3"/><rect x="520" y="439" width="37.8" height="6" rx="3"/><rect x="520" y="455" width="46.2" height="6" rx="3"/><rect x="628" y="375" width="75.6" height="6" rx="3"/><rect x="628" y="391" width="63" height="6" rx="3"/><rect x="628" y="407" width="58.8" height="6" rx="3"/><rect x="628" y="423" width="50.4" height="6" rx="3"/><rect x="628" y="439" width="68.88" height="6" rx="3"/><rect x="628" y="455" width="33.6" height="6" rx="3"/></g>
<rect x="160" y="532" width="440" height="64" rx="18" fill="#151b23" stroke="#3d444d"/>
<rect x="172" y="544" width="40" height="40" rx="6" fill="#3fb950" fill-opacity="0.12"/>
<g transform="translate(182 554) scale(0.8333)" fill="none" stroke="#3fb950" stroke-width="2.1" stroke-linecap="round" stroke-linejoin="round"><path d="M10 2v7.527a2 2 0 0 1-.211.896L4.72 20.55a1 1 0 0 0 .9 1.45h12.76a1 1 0 0 0 .9-1.45l-5.069-10.127A2 2 0 0 1 14 9.527V2"/><path d="M8.5 2h7"/><path d="M7 16h10"/></g>
<text x="224" y="562" font-size="15" font-weight="600" fill="#f0f6fc">Tested</text>
<text x="224" y="581" font-size="13" font-weight="400" fill="#9198a1">Tests, builds, checked in the real app</text>
<rect x="160" y="632" width="440" height="64" rx="18" fill="#151b23" stroke="#3d444d"/>
<rect x="172" y="644" width="40" height="40" rx="6" fill="#ab7df8" fill-opacity="0.12"/>
<g transform="translate(182 654) scale(0.8333)" fill="none" stroke="#ab7df8" stroke-width="2.1" stroke-linecap="round" stroke-linejoin="round"><path d="M3 7V5a2 2 0 0 1 2-2h2"/><path d="M17 3h2a2 2 0 0 1 2 2v2"/><path d="M21 17v2a2 2 0 0 1-2 2h-2"/><path d="M7 21H5a2 2 0 0 1-2-2v-2"/><circle cx="12" cy="12" r="1"/><path d="M18.944 12.33a1 1 0 0 0 0-.66 7.5 7.5 0 0 0-13.888 0 1 1 0 0 0 0 .66 7.5 7.5 0 0 0 13.888 0"/></g>
<text x="224" y="662" font-size="15" font-weight="600" fill="#f0f6fc">Reviewed</text>
<text x="224" y="681" font-size="13" font-weight="400" fill="#9198a1">A separate reviewer agent checks every finished card</text>
<rect x="314" y="732" width="132" height="44" rx="22" fill="#238636"/>
<g transform="translate(344 744) scale(0.8333)" fill="none" stroke="#ffffff" stroke-width="2.4" stroke-linecap="round" stroke-linejoin="round"><circle cx="12" cy="12" r="10"/><path d="m9 12 2 2 4-4"/></g>
<text x="370" y="760" font-size="15" font-weight="600" fill="#ffffff">Done</text>
</svg>
